#!OML:ASF Y:\EmotionMaleHayes\Project 1\Capture day 1\Session 1\Male1.ASF
:FULLY-SPECIFIED
:DEGREES
87
root -30.2032 17.0964 0.831906 34.3178 85.8995 35.5719
lowerback 5.03443 1.8434 -5.12795
upperback 0.652079 2.18338 -0.304024
thorax -2.32931 1.14 2.40565
lowerneck -20.3356 1.54921 3.23272
upperneck 24.2515 1.7179 -1.35339
head 11.2929 0.990332 -0.754165
rclavicle -2.22142e-014 1.03368e-014
rhumerus -34.398 6.34039 -91.0375
rradius 30.1999
rwrist 4.47681
rhand -9.58091 -31.9162
rfingers 7.12502
rthumb 16.3872 -61.2439
lclavicle -2.22142e-014 1.03368e-014
lhumerus -31.0692 -8.28769 93.571
lradius 22.2023
lwrist -17.4995
lhand -16.5741 -28.2832
lfingers 7.12502
lthumb 9.64631 1.47597
rfemur 7.66984 -2.35219 12.3382
rtibia 4.50319
rfoot -15.8488 -3.35345
rtoes 12.5859
lfemur 11.3862 -1.22023 -18.5016
ltibia -0.53931
lfoot -11.4125 10.148
ltoes -8.74558
88
root -30.2023 17.0993 0.832422 33.8129 85.9038 35.0966
lowerback 5.07466 1.85758 -5.09398
upperback 0.663391 2.20203 -0.314457
thorax -2.33995 1.14907 2.37342
lowerneck -20.3873 1.56527 3.24327
upperneck 24.347 1.72596 -1.30783
head 11.339 1.00212 -0.737617
rclavicle 4.60932e-015 -1.97791e-014
rhumerus -34.4346 6.33929 -91.078
rradius 30.2222
rwrist 4.35991
rhand -9.62888 -31.8155
rfingers 7.12502
rthumb 16.341 -61.147
lclavicle 4.60932e-015 -1.97791e-014
lhumerus -31.0693 -8.31869 93.5415
lradius 22.2031
lwrist -17.5682
lhand -16.1647 -28.2242
lfingers 7.12502
lthumb 10.0412 1.51623
rfemur 7.72824 -2.1235 12.4383
rtibia 4.42731
rfoot -15.9208 -3.42569
rtoes 13.3808
lfemur 11.4688 -1.35469 -18.5008
ltibia -0.613994
lfoot -11.4999 10.2369
ltoes -8.42531
89
root -30.202 17.0978 0.832305 35.2195 85.877 36.3877
lowerback 4.89267 1.8334 -5.1551
upperback 0.674798 2.17717 -0.374065
thorax -2.22418 1.13438 2.35391
lowerneck -20.2624 1.52781 3.25331
upperneck 24.2386 1.66304 -1.27745
head 11.2721 0.978021 -0.73858
rclavicle -6.52883e-015 1.58034e-014
rhumerus -34.3655 6.324 -91.1332
rradius 30.189
rwrist 4.33557
rhand -9.60594 -31.8062
rfingers 7.12502
rthumb 16.3631 -61.1359
lclavicle -6.52883e-015 1.58034e-014
lhumerus -31.043 -8.33596 93.474
lradius 22.2333
lwrist -17.6322
lhand -15.5957 -28.3265
lfingers 7.12502
lthumb 10.5902 1.3867
rfemur 7.60923 -2.24042 12.3028
rtibia 4.4372
rfoot -15.8992 -3.33123
rtoes 13.3395
lfemur 11.2423 -1.05797 -18.5052
ltibia -0.439395
lfoot -11.5597 9.90375
ltoes -8.31689
90
root -30.1988 17.1003 0.828784 36.8202 85.7878 38.053
lowerback 4.96299 1.84335 -5.28278
upperback 0.67708 2.17914 -0.412858
thorax -2.26455 1.13749 2.38291
lowerneck -20.2677 1.53086 3.25123
upperneck 24.2686 1.65795 -1.23757
head 11.284 0.981259 -0.724325
rclavicle -2.51059e-014 1.17283e-014
rhumerus -34.3775 6.27158 -91.1127
rradius 30.1453
rwrist 4.37652
rhand -9.45981 -31.8127
rfingers 7.12502
rthumb 16.5038 -61.1308
lclavicle -2.51059e-014 1.17283e-014
lhumerus -31.113 -8.34831 93.4763
lradius 22.2704
lwrist -17.6563
lhand -15.9415 -28.5189
lfingers 7.12502
lthumb 10.2566 1.211
rfemur 7.6805 -2.41713 12.026
rtibia 4.46687
rfoot -15.8814 -3.11342
rtoes 13.4831
lfemur 11.2573 -0.805251 -18.6292
ltibia -0.337371
lfoot -11.5415 9.65373
ltoes -7.96044
91
root -30.1985 17.1002 0.827313 35.0938 85.8224 36.315
lowerback 4.95614 1.85778 -5.1232
upperback 0.687828 2.20766 -0.403391
thorax -2.24631 1.14965 2.30181
lowerneck -20.3388 1.55099 3.34554
upperneck 24.3344 1.66348 -1.27169
head 11.3241 0.988626 -0.751432
rclavicle 1.55611e-014 -5.96354e-016
rhumerus -34.341 6.24691 -91.142
rradius 30.112
rwrist 4.41511
rhand -9.41657 -31.8276
rfingers 7.12502
rthumb 16.5454 -61.1422
lclavicle 1.55611e-014 -5.96354e-016
lhumerus -31.1041 -8.44206 93.4454
lradius 22.2715
lwrist -17.6372
lhand -16.4913 -28.517
lfingers 7.12502
lthumb 9.7262 1.23842
rfemur 7.61963 -2.45516 12.1542
rtibia 4.54547
rfoot -15.8856 -3.0465
rtoes 13.6711
lfemur 11.3519 -1.04867 -18.5822
ltibia -0.517319
lfoot -11.5539 9.94104
ltoes -7.65776
92
root -30.1998 17.1008 0.826208 33.5802 85.8771 34.7584
lowerback 4.95773 1.87333 -4.97099
upperback 0.667002 2.23548 -0.388157
thorax -2.26576 1.16279 2.22993
lowerneck -20.3563 1.55074 3.36652
upperneck 24.4037 1.64845 -1.23628
head 11.3533 0.989697 -0.744112
rclavicle 8.14396e-015 -7.95139e-016
rhumerus -34.3512 6.24004 -91.1738
rradius 30.1224
rwrist 4.38366
rhand -9.4789 -31.8731
rfingers 7.12502
rthumb 16.4854 -61.1928
lclavicle 8.14396e-015 -7.95139e-016
lhumerus -31.1322 -8.47088 93.4355
lradius 22.2681
lwrist -17.6736
lhand -15.9303 -28.4444
lfingers 7.12502
lthumb 10.2674 1.28504
rfemur 7.54403 -2.45896 12.3077
rtibia 4.58011
rfoot -15.8392 -3.13097
rtoes 13.4719
lfemur 11.4088 -1.42683 -18.5733
ltibia -0.711517
lfoot -11.6319 10.33
ltoes -7.7216
93
root -30.2002 17.1006 0.826004 33.3041 85.9511 34.4472
lowerback 4.96803 1.86463 -4.93617
upperback 0.636765 2.22446 -0.343255
thorax -2.30243 1.15814 2.25667
lowerneck -20.3011 1.51255 3.14606
upperneck 24.5223 1.63149 -1.07471
head 11.3832 0.985446 -0.650385
rclavicle -4.71803e-015 -8.44835e-015
rhumerus -34.4188 6.26821 -91.159
rradius 30.1697
rwrist 4.34765
rhand -9.55925 -31.9479
rfingers 7.12502
rthumb 16.408 -61.2739
lclavicle -4.71803e-015 -8.44835e-015
lhumerus -31.1669 -8.33666 93.456
lradius 22.2494
lwrist -17.7341
lhand -15.2445 -28.4895
lfingers 7.12502
lthumb 10.9289 1.20611
rfemur 7.5579 -2.40912 12.4082
rtibia 4.49772
rfoot -15.8474 -3.25364
rtoes 13.357
lfemur 11.3921 -1.59525 -18.5505
ltibia -0.760783
lfoot -11.706 10.4312
ltoes -7.7842
